<?xml version="1.0" encoding="utf-8"?>
<!-- Generator: Adobe Illustrator 20.1.0, SVG Export Plug-In . SVG Version: 6.00 Build 0)  -->
<svg version="1.1" id="Layer_1" xmlns="http://www.w3.org/2000/svg" xmlns:xlink="http://www.w3.org/1999/xlink" x="0px" y="0px"
	 viewBox="0 0 374.2 527.2" style="enable-background:new 0 0 374.2 527.2;" xml:space="preserve">
<style type="text/css">
	.st0{fill:#EEE7E3;}
</style>
<path id="path7306" class="st0" d="M187.7,40.2c-10,12.2-16.6,27.7-16.6,44.4c1.1,37.7,5.5,74.4,5.5,112.1
	c1.1,34.4-10,67.7-22.2,99.9c-4.4,8.9-8.9,17.8-13.3,25.5l-13.3-2.2c-12.2-2.2-20-14.4-17.8-26.6c2.2-11.1,11.1-17.8,22.2-17.8h4.4
	l-11.1-91c-3.3-41.1-24.4-76.6-55.5-99.9c-5.5-4.4-11.1-7.8-16.6-11.1v324.1h74.4c5.5,30,22.2,56.6,45.5,75.5
	c5.5,3.3,10,8.9,13.3,14.4c3.3-5.5,7.8-11.1,13.3-14.4c23.3-17.8,40-44.4,45.5-75.5h74.4V73.5c-5.5,3.3-11.1,6.7-16.6,11.1
	c-31.1,23.3-52.2,58.8-55.5,99.9l-11.1,91h4.4c10,0,20,7.8,22.2,17.8c2.2,12.2-5.5,24.4-17.8,26.6l-13.3,2.2
	c-4.4-8.9-8.9-17.8-13.3-25.5c-12.2-32.2-23.3-64.4-22.2-99.9c0-37.7,4.4-74.4,5.5-112.1C205.5,68,198.8,52.4,187.7,40.2z
	 M76.7,120.1c14.4,16.6,24.4,37.7,26.6,61l8.9,75.5c-11.1,5.5-20,16.6-23.3,28.9H76.7C76.7,286.6,76.7,120.1,76.7,120.1z
	 M299.8,120.1v166.5h-12.2c-3.3-12.2-12.2-23.3-23.3-28.9l8.9-75.5C276.5,159,285.4,137.9,299.8,120.1z M187.7,272.2
	c5.5,20,14.4,38.8,24.4,55.5c-10,3.3-17.8,8.9-24.4,16.6c-6.7-7.8-14.4-13.3-24.4-16.6C174.4,309.9,182.2,292.2,187.7,272.2z
	 M76.7,308.8h12.2c4.4,15.5,15.5,27.7,31.1,32.2l11.1,2.2c-3.3,10-4.4,21.1-4.4,33.3H76.7V308.8z M287.6,308.8h12.2v67.7h-49.9
	c0-11.1-1.1-22.2-4.4-33.3l11.1-2.2C271,336.6,283.2,324.4,287.6,308.8L287.6,308.8z M153.3,347.7c13.3,2.2,24.4,13.3,24.4,27.7H150
	C148.9,366.5,150,356.6,153.3,347.7z M223.2,347.7c2.2,8.9,4.4,17.8,4.4,27.7h-27.7C199.9,362.1,209.9,349.9,223.2,347.7z
	 M151.1,398.7h25.5v46.6C164.4,432,155.5,416.5,151.1,398.7z M199.9,398.7h25.5c-4.4,17.8-13.3,34.4-25.5,46.6V398.7z"/>
</svg>
